<svg xmlns="http://www.w3.org/2000/svg" viewBox="0 0 100 100">
  <!-- 8-tooth gear body -->
  <path fill="#6366f1" d="M44.36 26.67L44.37 14.44L55.63 14.44L55.64 26.67L62.42 29.46L71.16 20.88L79.12 28.84L70.54 37.58L73.33 44.36L85.56 44.37L85.56 55.63L73.33 55.64L70.54 62.42L79.12 71.16L71.16 79.12L62.42 70.54L55.64 73.33L55.63 85.56L44.37 85.56L44.36 73.33L37.58 70.54L28.84 79.12L20.88 71.16L29.46 62.42L26.67 55.64L14.44 55.63L14.44 44.37L26.67 44.36L29.46 37.58L20.88 28.84L28.84 20.88L37.58 29.46Z"/>
  <!-- Center hub -->
  <circle cx="50" cy="50" r="15" fill="#05050f"/>
  <!-- Horizontal trace -->
  <line x1="37" y1="50" x2="63" y2="50" stroke="#818cf8" stroke-width="2" stroke-linecap="round"/>
  <!-- Vertical trace -->
  <line x1="50" y1="37" x2="50" y2="63" stroke="#818cf8" stroke-width="2" stroke-linecap="round"/>
  <!-- Diagonal traces -->
  <line x1="42" y1="42" x2="58" y2="58" stroke="#4f46e5" stroke-width="1.3" stroke-linecap="round"/>
  <line x1="58" y1="42" x2="42" y2="58" stroke="#4f46e5" stroke-width="1.3" stroke-linecap="round"/>
  <!-- Center node -->
  <circle cx="50" cy="50" r="3.8" fill="#c7d2fe"/>
  <!-- Cardinal nodes -->
  <circle cx="37" cy="50" r="2" fill="#818cf8"/>
  <circle cx="63" cy="50" r="2" fill="#818cf8"/>
  <circle cx="50" cy="37" r="2" fill="#818cf8"/>
  <circle cx="50" cy="63" r="2" fill="#818cf8"/>
  <!-- Diagonal nodes -->
  <circle cx="43" cy="43" r="1.6" fill="#6366f1"/>
  <circle cx="57" cy="43" r="1.6" fill="#6366f1"/>
  <circle cx="43" cy="57" r="1.6" fill="#6366f1"/>
  <circle cx="57" cy="57" r="1.6" fill="#6366f1"/>
</svg>
